<?xml version="1.0" encoding="utf-8"?>
<!-- Generator: Adobe Illustrator 24.2.1, SVG Export Plug-In . SVG Version: 6.00 Build 0)  -->
<!DOCTYPE svg PUBLIC "-//W3C//DTD SVG 1.1//EN" "http://www.w3.org/Graphics/SVG/1.1/DTD/svg11.dtd" [
	<!ENTITY ns_extend "http://ns.adobe.com/Extensibility/1.0/">
	<!ENTITY ns_ai "http://ns.adobe.com/AdobeIllustrator/10.0/">
	<!ENTITY ns_graphs "http://ns.adobe.com/Graphs/1.0/">
	<!ENTITY ns_vars "http://ns.adobe.com/Variables/1.0/">
	<!ENTITY ns_imrep "http://ns.adobe.com/ImageReplacement/1.0/">
	<!ENTITY ns_sfw "http://ns.adobe.com/SaveForWeb/1.0/">
	<!ENTITY ns_custom "http://ns.adobe.com/GenericCustomNamespace/1.0/">
	<!ENTITY ns_adobe_xpath "http://ns.adobe.com/XPath/1.0/">
]>
<svg version="1.1" id="Logo_Artwork" xmlns:x="&ns_extend;" xmlns:i="&ns_ai;" xmlns:graph="&ns_graphs;"
	 xmlns="http://www.w3.org/2000/svg" xmlns:xlink="http://www.w3.org/1999/xlink" x="0px" y="0px" viewBox="0 0 526.4 208.6"
	 style="enable-background:new 0 0 526.4 208.6;" xml:space="preserve">
<style type="text/css">
	.st0{fill:#174091;}
</style>
<switch>
	<g i:extraneous="self">
		<g>
			<g>
				<path class="st0" d="M78.1,74.4c0,2.1-1.7,3.7-3.7,3.7H43.2c-2.3,0-4.1-1.8-4.1-4.1V43.2c0-2.3,1.8-4.1,4.1-4.1H74
					c2.3,0,4.1,1.8,4.1,4.1V74.4z"/>
				<path class="st0" d="M123.7,74.4c0,2.1-1.7,3.7-3.7,3.7H88.8c-2.3,0-4.1-1.8-4.1-4.1V43.2c0-2.3,1.8-4.1,4.1-4.1h30.9
					c2.3,0,4.1,1.8,4.1,4.1V74.4z"/>
				<path class="st0" d="M169.4,74.4c0,2.1-1.7,3.7-3.7,3.7h-31.2c-2.3,0-4.1-1.8-4.1-4.1V43.2c0-2.3,1.8-4.1,4.1-4.1h30.9
					c2.3,0,4.1,1.8,4.1,4.1V74.4z"/>
				<path class="st0" d="M74.4,84.8H43.2c-2.3,0-4.1,1.8-4.1,4.1v30.9c0,2.3,1.8,4.1,4.1,4.1H74c2.3,0,4.1-1.8,4.1-4.1V88.5
					C78.1,86.4,76.4,84.8,74.4,84.8 M74,88.8v30.9H43.1V88.8l0,0H74z"/>
				<path class="st0" d="M165.6,84.8h-31.2c-2.3,0-4.1,1.8-4.1,4.1v30.9c0,2.3,1.8,4.1,4.1,4.1h30.9c2.3,0,4.1-1.8,4.1-4.1V88.5
					C169.4,86.4,167.7,84.8,165.6,84.8 M165.3,88.8v30.9h-30.9V88.8l0,0H165.3z"/>
				<path class="st0" d="M123.7,119.7c0,2.2-1.8,4.1-4.1,4.1H88.4c-2.1,0-3.8-1.7-3.8-3.8V88.9c0-2.3,1.8-4.1,4.1-4.1H120
					c2.1,0,3.8,1.7,3.8,3.8V119.7z"/>
				<path class="st0" d="M74.4,130.4H43.2c-2.3,0-4.1,1.8-4.1,4.1v30.9c0,2.3,1.8,4.1,4.1,4.1h31.2c2.1,0,3.7-1.7,3.7-3.7v-31.5
					C78.1,132.1,76.4,130.4,74.4,130.4 M74,165.4H43.1v-30.9H74V165.4z"/>
				<path class="st0" d="M165.6,130.4h-31.2c-2.3,0-4.1,1.8-4.1,4.1v30.9c0,2.3,1.8,4.1,4.1,4.1h31.2c2.1,0,3.7-1.7,3.7-3.7v-31.5
					C169.4,132.1,167.7,130.4,165.6,130.4 M165.3,165.4h-30.9v-30.9h30.9V165.4z"/>
				<path class="st0" d="M123.7,165.7c0,2.1-1.7,3.8-3.8,3.8H88.8c-2.3,0-4.1-1.8-4.1-4.1v-31.2c0-2.1,1.7-3.7,3.8-3.7h31.2
					c2.2,0,4.1,1.8,4.1,4.1V165.7z"/>
			</g>
			<path class="st0" d="M196.3,39.1h49v12.6h-18v38.1h-13V51.8h-18V39.1z"/>
			<path class="st0" d="M286.6,39.1c3.3,0,6.1,0.5,8.5,1.5c2.4,1,4.4,2.3,5.9,4c1.6,1.7,2.7,3.7,3.5,5.9c0.8,2.3,1.1,4.6,1.1,7.2
				c0,1.8-0.2,3.5-0.6,5.2c-0.4,1.7-1,3.3-1.9,4.7c-0.8,1.5-1.9,2.8-3.1,4c-1.3,1.2-4.1,2.4-6.3,3l11,15.4h-15.6l-9.6-13.6h-8.7
				v13.6h-13V39.1H286.6z M270.7,51v13.5h15.2c1.3,0,2.4-0.2,3.3-0.6c0.9-0.4,1.6-0.9,2.2-1.5c0.6-0.6,1-1.3,1.2-2.1
				c0.3-0.8,0.4-1.7,0.4-2.5c0-2-0.5-3.6-1.6-4.9c-1.1-1.3-2.9-2-5.5-2H270.7z"/>
			<path class="st0" d="M363.6,39.1v28.6c0,3.3-0.5,6.3-1.5,9.1c-1,2.8-2.5,5.3-4.5,7.4c-2,2.1-4.4,3.7-7.3,4.9
				c-2.9,1.2-6.2,1.8-10,1.8c-3.8,0-7.2-0.6-10.1-1.8c-2.9-1.2-5.3-2.8-7.3-4.9c-2-2.1-3.4-4.5-4.4-7.4s-1.5-5.9-1.5-9.1V39.1h13
				v27.8c0,3.7,0.9,6.5,2.6,8.5c1.7,2,4.3,2.9,7.7,2.9c3.4,0,6-1,7.8-2.9c1.8-2,2.6-4.8,2.6-8.5V39.1H363.6z"/>
			<path class="st0" d="M376.6,89.9V39.1h11.1l22.6,28.4V39.1h13v50.8h-11l-22.6-28.3v28.3H376.6z"/>
			<path class="st0" d="M196.3,118.7h49v12.6h-18v38.1h-13v-38.1h-18V118.7z"/>
			<path class="st0" d="M304.4,118.7v50.8h-13v-18.9h-20.7v18.9h-13v-50.8h13v19.7h20.7v-19.7H304.4z"/>
			<path class="st0" d="M363.6,118.7v28.6c0,3.3-0.5,6.3-1.5,9.1c-1,2.8-2.5,5.3-4.5,7.4c-2,2.1-4.4,3.7-7.3,4.9
				c-2.9,1.2-6.2,1.8-10,1.8c-3.8,0-7.2-0.6-10.1-1.8c-2.9-1.2-5.3-2.8-7.3-4.9c-2-2.1-3.4-4.5-4.4-7.4s-1.5-5.9-1.5-9.1v-28.6h13
				v27.8c0,3.7,0.9,6.5,2.6,8.5c1.7,2,4.3,2.9,7.7,2.9c3.4,0,6-1,7.8-2.9c1.8-2,2.6-4.8,2.6-8.5v-27.8H363.6z"/>
			<path class="st0" d="M399.9,137.1l11.3-18.4h15.4l-20.1,32.1v18.6h-13v-18.6l-20-32.1h15.3L399.9,137.1z"/>
			<path class="st0" d="M487.2,62h-2.2h-6.8h-18.5v10.8h12.1c-1.2,1.6-2.6,3-4.4,3.9c-1.9,1-3.9,1.6-6.2,1.6c-1.9,0-3.7-0.4-5.4-1.1
				c-1.7-0.7-3.2-1.7-4.4-2.9c-1.2-1.2-2.2-2.7-2.9-4.4c-0.7-1.7-1.1-3.5-1.1-5.4c0-1.9,0.4-3.7,1.1-5.4c0.7-1.7,1.7-3.2,2.9-4.4
				c1.2-1.2,2.7-2.2,4.4-2.9c1.7-0.7,3.5-1.1,5.4-1.1c2.2,0,4.3,0.5,6.2,1.4c1.9,0.9,3.5,2.2,4.7,3.8l10.6-7.2
				c-2.5-3.2-5.6-5.8-9.3-7.7c-3.7-1.9-7.8-2.9-12.2-2.9c-3.7,0-7.2,0.7-10.4,2.1c-3.3,1.4-6.1,3.3-8.6,5.7
				c-2.5,2.4-4.4,5.2-5.8,8.4c-1.4,3.2-2.1,6.6-2.1,10.2c0,3.6,0.7,7.1,2.1,10.2c1.4,3.2,3.4,6,5.8,8.4c2.4,2.4,5.3,4.3,8.6,5.7
				c3.3,1.4,6.7,2.1,10.4,2.1c0.9,0,1.8-0.1,2.7-0.2l0,0c0.1,0,0.2,0,0.4-0.1c0.7-0.1,1.3-0.2,1.9-0.4c3.4-0.7,5.9-1.6,8.3-3.1
				c6.6-4,10.1-9.5,11.6-14.5C487.8,67,487.2,62,487.2,62z"/>
		</g>
	</g>
</switch>
</svg>
