<svg width="262" height="153" viewBox="0 0 262 153" fill="none" xmlns="http://www.w3.org/2000/svg">
<path d="M199.332 152.473H85.4136C77.6344 152.473 71.3281 146.19 71.3281 138.439V86.437C71.3281 84.9108 71.9578 83.4518 73.0694 82.4019L133.435 25.3887C138.446 20.6553 146.299 20.6553 151.311 25.3887L208.866 79.7477C211.771 82.4921 213.417 86.3058 213.417 90.295V138.439C213.417 142.161 211.933 145.731 209.292 148.363C206.65 150.994 203.067 152.473 199.332 152.473Z" fill="#102D65"/>
<path opacity="0.1" d="M71.3281 87.2915H212.233V143.999C212.233 148.68 208.425 152.474 203.728 152.474H79.8334C75.1361 152.474 71.3281 148.68 71.3281 143.999L71.3281 87.2915Z" fill="black"/>
<rect x="89.8281" y="42.6072" width="104.791" height="104.41" rx="4.85491" fill="white"/>
<path opacity="0.1" d="M194.619 89.6353V147.016H89.8281V89.6353L142.223 114.868L194.619 89.6353Z" fill="black"/>
<path d="M142.224 118.112L75.089 85.781C74.2449 85.3744 73.2502 85.429 72.456 85.9255C71.6618 86.4219 71.1797 87.2904 71.1797 88.2245V143.851C71.1797 146.098 72.0758 148.254 73.6708 149.843C75.2659 151.432 77.4292 152.325 79.685 152.325H204.763C207.019 152.325 209.183 151.432 210.778 149.843C212.373 148.254 213.269 146.098 213.269 143.851V89.1774C213.269 88.0375 212.68 86.9777 211.711 86.372C210.742 85.7662 209.528 85.6996 208.498 86.1956L142.224 118.112Z" fill="#174091"/>
<rect x="98.8555" y="52.193" width="29.3059" height="4.12919" fill="black"/>
<rect x="96.4883" y="67.2346" width="87.0295" height="2.35954" fill="black"/>
<rect x="96.4883" y="75.1984" width="87.0295" height="2.35954" fill="black"/>
<rect x="96.4883" y="83.162" width="87.0295" height="2.35954" fill="black"/>
<path d="M18.043 152.326H261.962" stroke="#807660" stroke-width="0.6"/>
<path d="M0 116.006C0 133.396 10.9493 147.468 24.4806 147.468L0 116.006Z" fill="#102D65"/>
<path d="M24.4805 147.468C24.4805 129.883 36.6993 115.653 51.7994 115.653L24.4805 147.468Z" fill="#807660"/>
<path d="M8.86914 117.584C8.86914 134.102 15.8513 147.469 24.4799 147.469L8.86914 117.584Z" fill="#948A71"/>
<path d="M24.4805 147.468C24.4805 124.998 38.6035 106.816 56.0568 106.816L24.4805 147.468Z" fill="#14367B"/>
<path d="M19.3301 147.69C19.3301 147.69 22.8018 147.584 23.8481 146.841C24.8944 146.099 29.1885 145.213 29.4481 146.403C29.7077 147.594 34.6655 152.324 30.7459 152.356C26.8263 152.387 21.6385 151.748 20.5943 151.114C19.55 150.48 19.3301 147.69 19.3301 147.69Z" fill="#807660"/>
<path opacity="0.2" d="M30.8159 151.942C26.8963 151.973 21.7085 151.334 20.6642 150.7C19.8689 150.217 19.552 148.485 19.446 147.686C19.3725 147.689 19.3301 147.691 19.3301 147.691C19.3301 147.691 19.55 150.48 20.5943 151.114C21.6385 151.748 26.8263 152.388 30.7459 152.356C31.8773 152.347 32.2682 151.946 32.2467 151.352C32.0895 151.711 31.658 151.935 30.8159 151.942Z" fill="black"/>
<path d="M213.049 20.8637C212.871 22.443 211.663 23.7152 211.215 25.2404C210.54 27.5361 211.706 29.9996 213.301 31.7875C215.9 34.6707 219.55 36.3972 223.435 36.5816C224 36.6311 224.569 36.5693 225.11 36.3997C225.593 36.206 226.028 35.9098 226.385 35.5317C227.586 34.3301 228.231 32.6653 228.488 30.9889C228.745 29.3126 228.645 27.6047 228.544 25.9119C228.545 25.5619 228.481 25.2149 228.356 24.8878C228.192 24.5763 227.967 24.3007 227.694 24.0775C226.83 23.2872 225.877 22.5978 224.856 22.0228C224.394 21.8167 223.987 21.5062 223.666 21.1159C223.473 20.7816 223.348 20.4127 223.298 20.0302L222.985 18.4378C222.929 17.9789 222.772 17.5381 222.524 17.147C221.97 16.4023 220.911 16.301 219.981 16.2647L216.575 16.1315C215.516 16.0901 214.12 15.7875 213.086 15.9948C212.12 16.1883 212.441 17.075 212.616 17.8824C212.871 18.8572 213.016 19.8571 213.049 20.8637Z" fill="#D8ACA4"/>
<path opacity="0.1" d="M213.049 20.8637C212.871 22.443 211.663 23.7152 211.215 25.2404C210.54 27.5361 211.706 29.9996 213.301 31.7875C215.9 34.6707 219.55 36.3972 223.435 36.5816C224 36.6311 224.569 36.5693 225.11 36.3997C225.593 36.206 226.028 35.9098 226.385 35.5317C227.586 34.3301 228.231 32.6653 228.488 30.9889C228.745 29.3126 228.645 27.6047 228.544 25.9119C228.545 25.5619 228.481 25.2149 228.356 24.8878C228.192 24.5763 227.967 24.3007 227.694 24.0775C226.83 23.2872 225.877 22.5978 224.856 22.0228C224.394 21.8167 223.987 21.5062 223.666 21.1159C223.473 20.7816 223.348 20.4127 223.298 20.0302L222.985 18.4378C222.929 17.9789 222.772 17.5381 222.524 17.147C221.97 16.4023 220.911 16.301 219.981 16.2647L216.575 16.1315C215.516 16.0901 214.12 15.7875 213.086 15.9948C212.12 16.1883 212.441 17.075 212.616 17.8824C212.871 18.8572 213.016 19.8571 213.049 20.8637Z" fill="#D8ACA4"/>
<path d="M234.714 91.9474C234.232 97.2187 233.749 102.489 233.267 107.759C232.889 111.906 232.504 116.07 231.763 120.164C231.507 121.574 231.208 122.978 230.852 124.369C229.862 128.232 228.427 132.008 227.964 135.968C227.949 136.082 227.937 136.198 227.925 136.315C227.873 137.191 227.707 138.056 227.43 138.889C227.199 139.493 226.843 140.044 226.592 140.642C226.093 141.836 226.027 143.157 225.966 144.451C224.209 143.467 222.285 142.812 220.29 142.519C219.328 142.375 218.255 142.273 217.6 141.557C216.874 140.766 216.954 139.554 217.076 138.49C217.459 135.188 217.84 131.888 218.221 128.589C218.346 127.17 218.588 125.763 218.945 124.384C219.077 123.925 219.235 123.473 219.396 123.021C219.618 122.4 219.842 121.778 220.01 121.14C220.252 120.108 220.422 119.061 220.517 118.005C220.909 114.684 221.382 111.369 221.796 108.05L221.818 107.875C222.44 102.844 222.912 97.7893 222.776 92.722C222.756 91.9717 222.725 91.2215 222.676 90.4688C222.608 89.3786 222.508 88.8007 223.414 88.1184C224.416 87.3658 225.734 86.8389 226.88 86.346C227.496 86.0789 234.285 83.6776 234.444 84.2045C234.762 85.3283 234.929 86.4894 234.941 87.6571C234.946 89.0903 234.87 90.5227 234.714 91.9474Z" fill="#5E271C"/>
<path opacity="0.1" d="M231.764 120.163C231.508 121.574 231.208 122.977 230.852 124.369C229.863 128.232 228.428 132.007 227.965 135.967C227.95 136.081 227.938 136.198 227.926 136.315C224.899 132.007 222.35 127.375 219.396 123.021C219.618 122.4 219.842 121.778 220.011 121.139C220.253 120.108 220.422 119.06 220.517 118.005C220.91 114.683 221.383 111.369 221.797 108.05L221.819 107.875C221.992 108.58 222.24 109.264 222.557 109.917C224.541 113.933 229.254 115.963 231.559 119.806C231.63 119.925 231.698 120.044 231.764 120.163Z" fill="black"/>
<path d="M207.203 84.8508C207.303 88.0718 207.82 91.2637 208.337 94.4449L209.402 101.008C209.985 104.601 210.592 108.266 212.299 111.484C213.575 113.89 215.414 115.944 217.077 118.104C221.167 123.412 224.239 129.426 228.117 134.89C229.244 136.478 230.855 138.195 232.779 137.864C234.041 137.646 234.958 136.599 235.951 135.791C237.121 134.839 238.531 134.143 239.452 132.949C240.372 131.756 240.553 129.772 239.305 128.923C238.854 128.674 238.375 128.479 237.878 128.341C235.944 127.609 234.693 125.727 233.897 123.825C233.1 121.923 232.618 119.878 231.557 118.108C229.252 114.265 224.538 112.235 222.554 108.218C221.443 105.968 221.337 103.374 221.252 100.868L221.035 94.4788C221.012 93.7801 220.993 93.0534 221.278 92.4146C222.037 90.7139 224.329 90.5555 226.184 90.3399C228.29 90.094 230.33 89.4527 232.196 88.45C233.265 87.875 234.309 87.142 234.881 86.0743C235.402 85.1002 235.474 83.9577 235.536 82.8553L236.178 71.2765C236.233 70.2803 236.284 69.2503 235.931 68.3165C235.047 65.9715 232.075 65.2053 229.563 65.3172C224.889 65.5254 220.574 67.5287 216.167 68.8816C215.075 69.2246 213.967 69.5127 212.846 69.7445C211.857 69.9423 210.66 69.8603 209.717 70.1771C208.039 70.7406 208.082 74.3961 207.844 75.9124C207.352 78.8656 207.138 81.8579 207.203 84.8508Z" fill="#6D2C1F"/>
<path d="M232.146 138.349C232.558 138.764 232.693 139.37 232.8 139.944C233.395 143.124 233.705 146.351 233.725 149.586C233.698 149.888 233.758 150.191 233.9 150.46C234.016 150.62 234.173 150.746 234.355 150.824C235.546 151.39 236.929 150.602 237.921 149.735C239.762 148.129 241.319 145.973 241.423 143.538C241.404 142.911 241.426 142.283 241.489 141.659C241.651 140.742 242.188 139.943 242.661 139.141C243.467 137.775 244.117 136.323 244.599 134.813C244.78 134.246 244.9 133.532 244.454 133.136C244.296 133.012 244.116 132.919 243.924 132.861L238.543 130.871C238.076 130.698 236.916 133.668 236.732 133.993C236.281 134.787 235.833 135.238 234.93 135.421C234.007 135.608 232.909 135.339 232.048 135.798C230.592 136.574 231.321 137.521 232.146 138.349Z" fill="#4C4C4C"/>
<path d="M223.841 140.182C223.741 139.984 223.602 139.808 223.432 139.665C223.183 139.507 222.899 139.411 222.606 139.385C221.581 139.212 220.367 139.098 219.66 139.856C218.997 140.568 219.111 141.726 218.557 142.525C218.381 142.777 218.144 142.986 217.991 143.253C217.803 143.662 217.717 144.11 217.743 144.559C217.715 145.797 217.686 147.036 217.772 148.271C217.844 149.305 218.019 150.39 218.668 151.2C219.711 152.501 221.591 152.688 223.259 152.773L224.611 152.841C224.983 152.886 225.36 152.852 225.718 152.74C226.165 152.534 226.51 152.156 226.673 151.693C227.377 149.951 226.263 148.074 225.577 146.325C224.788 144.315 224.929 142.083 223.841 140.182Z" fill="#4C4C4C"/>
<path d="M212.656 11.9652C212.639 11.7886 212.665 11.6106 212.732 11.4461C212.93 11.0974 213.447 11.1923 213.837 11.2902C215.405 11.6841 217.057 11.3275 218.671 11.4196C220.285 11.5116 222.104 12.3157 222.428 13.894C223.6 13.0663 224.61 12.0322 225.409 10.8427C225.857 10.1747 226.248 9.40949 226.187 8.60832C226.099 7.45273 225.125 6.58852 224.224 5.85566L221.539 3.67102C221.186 3.34822 220.779 3.0903 220.336 2.90924C219.716 2.69806 219.039 2.79867 218.384 2.79909C216.429 2.80034 214.344 1.9138 212.606 2.80438C211.879 3.17639 211.332 3.8139 210.805 4.43551L208.408 7.26279C208.228 7.44298 208.096 7.66569 208.025 7.91023C207.957 8.25533 208.135 8.59592 208.197 8.94217C208.31 9.57379 208.037 10.2479 208.247 10.8544C208.595 11.8614 209.823 12.004 210.573 12.5812C210.852 12.7964 211.291 13.5256 211.624 13.5167C212.225 13.5006 212.64 12.4305 212.656 11.9652Z" fill="#454545"/>
<path d="M216.723 20.2991C220.963 20.2991 224.399 16.8748 224.399 12.6508C224.399 8.42671 220.963 5.00244 216.723 5.00244C212.484 5.00244 209.047 8.42671 209.047 12.6508C209.047 16.8748 212.484 20.2991 216.723 20.2991Z" fill="#ECBCB4"/>
<path d="M218.522 29.3897C217.987 27.8644 216.522 26.86 214.901 26.9075C214.675 26.9495 214.442 26.92 214.234 26.8234C214.116 26.7332 214.022 26.6159 213.959 26.4816C213.492 25.6452 213.117 24.7614 212.84 23.8452C212.718 23.4404 212.55 22.9631 212.139 22.8579C211.792 22.8127 211.449 22.9616 211.246 23.2451C211.05 23.5253 210.837 23.7924 210.607 24.0449C209.641 24.9049 207.93 24.121 206.905 24.9101C206.738 25.039 206.6 25.2041 206.424 25.3214C206.248 25.4269 206.059 25.5079 205.86 25.5621C203.882 26.2058 201.942 26.9627 200.051 27.8293C200.732 31.9192 201.431 36.0804 203.029 39.9085C203.789 41.7303 204.65 43.5145 205.259 45.3919C206.608 49.5517 206.668 54.0024 206.683 58.3739C206.694 61.3658 206.679 64.4216 205.707 67.2526C205.446 67.8783 205.262 68.5332 205.159 69.203C205.1 69.8776 205.297 70.6215 205.846 71.0211C206.164 71.2284 206.527 71.3557 206.906 71.3921C208.589 71.6382 210.286 71.1919 211.944 70.8094C216.386 69.7843 220.917 69.1977 225.44 68.6126L233.018 67.6322C233.561 67.5954 234.093 67.4585 234.586 67.2285C235.972 66.472 236.104 64.3937 235.243 63.0727C234.83 62.4394 234.248 61.9198 233.901 61.2484C233.554 60.577 233.524 59.638 234.121 59.173C235.336 58.227 234.974 56.472 235.032 54.9369C235.194 50.6448 235.172 46.351 234.966 42.0555C234.905 41.1663 234.891 40.2745 234.923 39.3839C235.058 37.8746 235.338 36.3818 235.759 34.9259L238.062 25.8924C237.46 24.9453 236.308 24.3444 235.217 24.0716C234.126 23.7988 232.99 23.7185 231.915 23.3867C229.714 22.7071 227.754 20.9823 225.455 21.1431C225.282 21.1462 225.111 21.1878 224.955 21.2649C224.436 21.5576 224.518 22.302 224.485 22.8948C224.412 24.2064 223.444 25.3026 222.375 26.0711C221.305 26.8397 220.084 27.4001 219.102 28.2766C218.75 28.5412 218.536 28.9503 218.522 29.3897Z" fill="#14367B"/>
<path d="M188.108 37.9568C187.599 38.2859 187.058 38.5632 186.493 38.7845C185.94 38.9484 185.418 39.201 184.946 39.5324C184.729 39.7196 184.547 39.9438 184.408 40.1945C183.879 41.1296 183.903 42.2776 184.47 43.1905C185.037 44.1033 186.057 44.6363 187.133 44.5815C187.836 44.5031 188.518 44.3004 189.149 43.9829L194.563 41.6453C195.479 41.2496 196.469 40.7859 196.902 39.8893C196.953 39.8057 196.971 39.7068 196.955 39.6106C196.911 39.5089 196.832 39.4262 196.732 39.3777C195.511 38.5874 194.443 37.584 193.58 36.4157C193.358 36.1152 193.086 35.4057 192.772 35.2256C191.626 34.568 189.025 37.3636 188.108 37.9568Z" fill="#D8ACA4"/>
<path d="M245.987 36.0391L247.983 38.311C248.411 38.7987 248.84 39.287 249.231 39.8054C250.19 41.1225 250.96 42.567 251.517 44.0966C251.951 45.231 252.311 46.4394 252.159 47.6439C252.059 48.2614 251.891 48.8663 251.66 49.448C251.294 50.5666 250.841 51.6549 250.304 52.7028C249.852 53.4989 249.342 54.2607 248.777 54.9818C247.232 57.0227 245.541 58.9499 243.717 60.7486C243.035 61.4217 242.749 62.51 242.452 63.4198C241.904 65.0979 240.6 66.405 239.339 67.6444C238.934 68.0707 238.486 68.4546 238.003 68.7902C237.279 69.255 236.432 69.4952 235.571 69.4804C235.194 69.483 234.82 69.406 234.475 69.2544C233.612 68.8462 233.174 67.8521 233.084 66.9047C233.004 66.045 233.148 65.1791 233.504 64.3916C234.649 61.8635 237.591 60.768 239.67 58.9233C240.889 57.8417 241.821 56.483 242.741 55.1391C243.365 54.3 243.887 53.3893 244.294 52.4266C244.758 51.1922 244.577 49.7309 244.983 48.4761C245.155 47.9457 245.459 47.4668 245.644 46.9407C245.828 46.4146 245.875 45.7901 245.552 45.3348C245.309 45.0455 244.999 44.8193 244.648 44.6756C243.32 44.0039 241.833 43.1395 241.578 41.6773C241.477 40.8663 241.69 40.0474 242.173 39.3872C242.655 38.7359 243.217 38.1482 243.848 37.6383C244.429 37.1265 245.406 36.5508 245.987 36.0391Z" fill="#ECBCB4"/>
<path d="M186.825 41.1285C186.473 40.4191 186.032 39.6954 185.321 39.3426C184.624 39.0412 183.834 39.0379 183.134 39.3335C182.445 39.6297 181.799 40.0188 181.215 40.4897L179.495 41.7533C179.105 42.0083 178.76 42.3257 178.473 42.6928C178.202 43.138 178.021 43.6322 177.941 44.1471C177.641 45.3214 177.55 46.5388 177.671 47.7444C177.944 49.6776 179.114 51.3653 180.401 52.8368C181.206 53.7563 182.199 54.6843 183.423 54.7235C183.951 54.7404 184.538 54.533 184.758 54.0541C184.834 53.8642 184.875 53.662 184.877 53.4576C185.01 51.3013 184.235 49.1952 183.333 47.2311C183.045 46.7168 182.875 46.1454 182.835 45.5579C182.828 45.4591 182.854 45.3608 182.908 45.2777C182.986 45.197 183.09 45.1463 183.202 45.1348C184.437 44.8913 186.566 45.8477 187.432 44.4805C187.994 43.5943 187.225 41.9322 186.825 41.1285Z" fill="#ECBCB4"/>
<path d="M212.256 9.55773C212.239 9.38113 212.265 9.20314 212.332 9.0386C212.529 8.68988 213.046 8.78479 213.436 8.88273C215.004 9.27659 216.656 8.92007 218.271 9.01208C219.885 9.10409 221.703 9.90822 222.028 11.4865C223.2 10.6589 224.21 9.62477 225.009 8.43526C225.457 7.76721 225.847 7.00202 225.786 6.20085C225.698 5.04528 224.725 4.18105 223.824 3.44818L221.138 1.26355C220.786 0.940751 220.379 0.682827 219.936 0.501766C219.315 0.290587 218.639 0.391201 217.984 0.391619C216.029 0.39287 213.944 -0.493668 212.205 0.396908C211.479 0.768921 210.932 1.40642 210.405 2.02804L208.008 4.85532C207.827 5.03551 207.696 5.25822 207.625 5.50275C207.556 5.84786 207.734 6.18845 207.796 6.53471C207.91 7.16632 207.637 7.84042 207.847 8.44698C208.195 9.45395 209.422 9.59649 210.172 10.1738C210.452 10.3889 210.89 11.1181 211.223 11.1092C211.824 11.0931 212.24 10.023 212.256 9.55773Z" fill="#4C4C4C"/>
<path d="M195.95 30.5183C195.64 30.7174 195.368 30.9697 195.147 31.2635C194.865 31.6875 194.808 32.2227 194.567 32.6703C194.049 33.6282 192.839 33.9689 192.084 34.7548C191.964 34.8628 191.881 35.0053 191.846 35.1625C191.842 35.3757 191.914 35.5835 192.049 35.7493L195.689 41.451C196.901 41.5573 198.063 40.8008 199.276 40.9012C199.729 40.9387 200.192 41.0945 200.626 40.9612C200.937 40.8239 201.228 40.6464 201.492 40.4333C202.216 39.9776 203.179 39.9245 203.786 39.3232C204.368 38.7462 204.443 37.8434 204.436 37.0251C204.445 36.3144 204.373 35.605 204.219 34.911C203.683 32.7224 202.004 31.043 200.95 29.1043C200.438 28.1605 200.159 27.608 199.073 28.256C197.983 28.9074 196.977 29.7703 195.95 30.5183Z" fill="#102D65"/>
<path d="M240.159 27.6339C240.843 28.0765 241.46 28.6148 241.99 29.2321C242.545 29.9445 242.859 30.8164 243.391 31.5452C243.908 32.2516 244.61 32.7987 245.196 33.4492C246.084 34.4357 246.686 35.6392 247.277 36.8266C245.834 38.7016 244.26 40.4734 242.568 42.1288C242.38 42.3499 242.132 42.5125 241.853 42.5971C241.468 42.6378 241.089 42.4836 240.842 42.1865C240.58 41.9125 240.394 41.5746 240.144 41.2901C239.552 40.6821 238.764 40.3022 237.918 40.2177C237.08 40.1369 236.237 40.1254 235.397 40.1831C235.213 40.2035 235.026 40.1723 234.859 40.0929C234.734 40.0072 234.633 39.8918 234.565 39.7571C233.579 38.0862 233.896 35.9883 234.244 34.0814L235.042 29.7058C235.157 28.8702 235.38 28.0528 235.706 27.274C236.008 26.6305 236.684 25.5393 237.515 25.7319C238.352 25.9261 239.454 27.1289 240.159 27.6339Z" fill="#102D65"/>
<path d="M94.1192 56.3657C100.822 56.3657 106.256 50.9418 106.256 44.2511C106.256 37.5604 100.822 32.1365 94.1192 32.1365C87.4162 32.1365 81.9824 37.5604 81.9824 44.2511C81.9824 50.9418 87.4162 56.3657 94.1192 56.3657Z" fill="white"/>
<path fill-rule="evenodd" clip-rule="evenodd" d="M79.6152 44.5232C79.6152 36.5415 86.1093 30.071 94.1202 30.071C102.121 30.0944 108.602 36.5512 108.625 44.5232C108.625 52.5049 102.131 58.9754 94.1202 58.9754C86.1093 58.9754 79.6152 52.5049 79.6152 44.5232ZM83.7088 44.8225L91.1425 52.2293L104.539 38.8957L102.454 36.8182L91.1495 48.0812L85.7938 42.745L83.7088 44.8225Z" fill="#28A745"/>
</svg>
