<svg xmlns:x="http://ns.adobe.com/Extensibility/1.0/" xmlns:i="http://ns.adobe.com/AdobeIllustrator/10.0/" xmlns:graph="http://ns.adobe.com/Graphs/1.0/" xmlns="http://www.w3.org/2000/svg" xmlns:xlink="http://www.w3.org/1999/xlink" version="1.1" id="Logo_Artwork" x="0px" y="0px" viewBox="0 0 208.6 208.6" style="enable-background:new 0 0 208.6 208.6;" xml:space="preserve">
<style type="text/css">
	.st0{fill:#174091;}
</style>
<switch>
	<g xmlns:i="http://ns.adobe.com/AdobeIllustrator/10.0/" i:extraneous="self">
		<g>
			<g>
				<path class="st0" d="M78.1,74.4c0,2.1-1.7,3.7-3.7,3.7H43.2c-2.3,0-4.1-1.8-4.1-4.1V43.2c0-2.3,1.8-4.1,4.1-4.1H74      c2.3,0,4.1,1.8,4.1,4.1V74.4z"/>
				<path class="st0" d="M123.7,74.4c0,2.1-1.7,3.7-3.7,3.7H88.8c-2.3,0-4.1-1.8-4.1-4.1V43.2c0-2.3,1.8-4.1,4.1-4.1h30.9      c2.3,0,4.1,1.8,4.1,4.1V74.4z"/>
				<path class="st0" d="M169.4,74.4c0,2.1-1.7,3.7-3.7,3.7h-31.2c-2.3,0-4.1-1.8-4.1-4.1V43.2c0-2.3,1.8-4.1,4.1-4.1h30.9      c2.3,0,4.1,1.8,4.1,4.1V74.4z"/>
				<path class="st0" d="M74.4,84.8H43.2c-2.3,0-4.1,1.8-4.1,4.1v30.9c0,2.3,1.8,4.1,4.1,4.1H74c2.3,0,4.1-1.8,4.1-4.1V88.5      C78.1,86.4,76.4,84.8,74.4,84.8 M74,88.8v30.9H43.1V88.8l0,0H74z"/>
				<path class="st0" d="M165.6,84.8h-31.2c-2.3,0-4.1,1.8-4.1,4.1v30.9c0,2.3,1.8,4.1,4.1,4.1h30.9c2.3,0,4.1-1.8,4.1-4.1V88.5      C169.4,86.4,167.7,84.8,165.6,84.8 M165.3,88.8v30.9h-30.9V88.8l0,0H165.3z"/>
				<path class="st0" d="M123.7,119.7c0,2.2-1.8,4.1-4.1,4.1H88.4c-2.1,0-3.8-1.7-3.8-3.8V88.9c0-2.3,1.8-4.1,4.1-4.1H120      c2.1,0,3.8,1.7,3.8,3.8V119.7z"/>
				<path class="st0" d="M74.4,130.4H43.2c-2.3,0-4.1,1.8-4.1,4.1v30.9c0,2.3,1.8,4.1,4.1,4.1h31.2c2.1,0,3.7-1.7,3.7-3.7v-31.5      C78.1,132.1,76.4,130.4,74.4,130.4 M74,165.4H43.1v-30.9H74V165.4z"/>
				<path class="st0" d="M165.6,130.4h-31.2c-2.3,0-4.1,1.8-4.1,4.1v30.9c0,2.3,1.8,4.1,4.1,4.1h31.2c2.1,0,3.7-1.7,3.7-3.7v-31.5      C169.4,132.1,167.7,130.4,165.6,130.4 M165.3,165.4h-30.9v-30.9h30.9V165.4z"/>
				<path class="st0" d="M123.7,165.7c0,2.1-1.7,3.8-3.8,3.8H88.8c-2.3,0-4.1-1.8-4.1-4.1v-31.2c0-2.1,1.7-3.7,3.8-3.7h31.2      c2.2,0,4.1,1.8,4.1,4.1V165.7z"/>
			</g>
		</g>
	</g>
</switch>
</svg>